<mxfile host="app.diagrams.net" modified="2021-08-05T07:39:31.619Z" agent="5.0 (Windows NT 10.0; Win64; x64) AppleWebKit/537.36 (KHTML, like Gecko) Chrome/87.0.4280.88 Safari/537.36" etag="a4Xyy99C4UdjhmvqxqnV" version="14.9.3" type="github">
  <diagram id="EPz6VGqHSs-VgL9DtX49" name="Page-1">
    <mxGraphModel dx="1422" dy="706" grid="1" gridSize="10" guides="1" tooltips="1" connect="1" arrows="1" fold="1" page="1" pageScale="1" pageWidth="827" pageHeight="1169" math="0" shadow="0">
      <root>
        <mxCell id="0" />
        <mxCell id="1" parent="0" />
        <mxCell id="HBfOocNenqamL7iQ2zJh-1" value="&lt;font face=&quot;黑体&quot;&gt;&lt;span style=&quot;font-size: 21.28px&quot;&gt;医院&lt;/span&gt;&lt;/font&gt;" style="rounded=1;whiteSpace=wrap;html=1;" parent="1" vertex="1">
          <mxGeometry x="170" y="60" width="120" height="90" as="geometry" />
        </mxCell>
        <mxCell id="HBfOocNenqamL7iQ2zJh-2" value="&lt;div&gt;&lt;span style=&quot;font-size: 15.96pt&quot;&gt;&lt;font face=&quot;黑体&quot;&gt;医院接入流程&lt;/font&gt;&lt;/span&gt;&lt;/div&gt;" style="text;html=1;align=center;verticalAlign=middle;resizable=0;points=[];autosize=1;strokeColor=none;" parent="1" vertex="1">
          <mxGeometry x="170" y="20" width="140" height="20" as="geometry" />
        </mxCell>
        <mxCell id="HBfOocNenqamL7iQ2zJh-3" value="" style="endArrow=classic;html=1;" parent="1" edge="1">
          <mxGeometry width="50" height="50" relative="1" as="geometry">
            <mxPoint x="290" y="90" as="sourcePoint" />
            <mxPoint x="520" y="90" as="targetPoint" />
          </mxGeometry>
        </mxCell>
        <mxCell id="HBfOocNenqamL7iQ2zJh-5" value="Text" style="edgeLabel;html=1;align=center;verticalAlign=middle;resizable=0;points=[];" parent="HBfOocNenqamL7iQ2zJh-3" vertex="1" connectable="0">
          <mxGeometry x="0.1043" y="-1" relative="1" as="geometry">
            <mxPoint as="offset" />
          </mxGeometry>
        </mxCell>
        <mxCell id="HBfOocNenqamL7iQ2zJh-8" value="登记、开通" style="edgeLabel;html=1;align=center;verticalAlign=middle;resizable=0;points=[];fontSize=14;" parent="HBfOocNenqamL7iQ2zJh-3" vertex="1" connectable="0">
          <mxGeometry x="0.113" y="-2" relative="1" as="geometry">
            <mxPoint as="offset" />
          </mxGeometry>
        </mxCell>
        <mxCell id="HBfOocNenqamL7iQ2zJh-4" value="&lt;font style=&quot;font-size: 20px&quot;&gt;医保支付平台&lt;/font&gt;" style="rounded=1;whiteSpace=wrap;html=1;strokeWidth=2;" parent="1" vertex="1">
          <mxGeometry x="520" y="60" width="130" height="100" as="geometry" />
        </mxCell>
        <mxCell id="HBfOocNenqamL7iQ2zJh-9" value="" style="endArrow=classic;html=1;fontSize=14;entryX=1;entryY=0.75;entryDx=0;entryDy=0;exitX=-0.038;exitY=0.68;exitDx=0;exitDy=0;exitPerimeter=0;" parent="1" source="HBfOocNenqamL7iQ2zJh-4" target="HBfOocNenqamL7iQ2zJh-1" edge="1">
          <mxGeometry width="50" height="50" relative="1" as="geometry">
            <mxPoint x="500" y="160" as="sourcePoint" />
            <mxPoint x="550" y="110" as="targetPoint" />
          </mxGeometry>
        </mxCell>
        <mxCell id="HBfOocNenqamL7iQ2zJh-11" value="下发密钥" style="edgeLabel;html=1;align=center;verticalAlign=middle;resizable=0;points=[];fontSize=14;" parent="HBfOocNenqamL7iQ2zJh-9" vertex="1" connectable="0">
          <mxGeometry x="-0.1286" y="1" relative="1" as="geometry">
            <mxPoint as="offset" />
          </mxGeometry>
        </mxCell>
        <mxCell id="HBfOocNenqamL7iQ2zJh-12" value="&lt;div&gt;&lt;span style=&quot;font-size: 15.96pt&quot;&gt;&lt;font face=&quot;黑体&quot;&gt;医院调用支付流程&lt;/font&gt;&lt;/span&gt;&lt;/div&gt;" style="text;html=1;align=center;verticalAlign=middle;resizable=0;points=[];autosize=1;strokeColor=none;fontSize=14;" parent="1" vertex="1">
          <mxGeometry x="145" y="200" width="190" height="30" as="geometry" />
        </mxCell>
        <mxCell id="HBfOocNenqamL7iQ2zJh-13" value="医院" style="rounded=1;whiteSpace=wrap;html=1;fontSize=14;strokeWidth=2;" parent="1" vertex="1">
          <mxGeometry x="170" y="260" width="120" height="60" as="geometry" />
        </mxCell>
        <mxCell id="HBfOocNenqamL7iQ2zJh-14" value="医保支付平台" style="rounded=1;whiteSpace=wrap;html=1;fontSize=14;strokeWidth=2;" parent="1" vertex="1">
          <mxGeometry x="530" y="240" width="120" height="230" as="geometry" />
        </mxCell>
        <mxCell id="HBfOocNenqamL7iQ2zJh-15" value="支付宝" style="rounded=1;whiteSpace=wrap;html=1;fontSize=14;strokeWidth=2;" parent="1" vertex="1">
          <mxGeometry x="170" y="400" width="120" height="60" as="geometry" />
        </mxCell>
        <mxCell id="HBfOocNenqamL7iQ2zJh-16" value="" style="endArrow=classic;html=1;fontSize=14;entryX=0;entryY=0.161;entryDx=0;entryDy=0;entryPerimeter=0;" parent="1" target="HBfOocNenqamL7iQ2zJh-14" edge="1">
          <mxGeometry width="50" height="50" relative="1" as="geometry">
            <mxPoint x="291" y="277" as="sourcePoint" />
            <mxPoint x="520" y="265" as="targetPoint" />
          </mxGeometry>
        </mxCell>
      </root>
    </mxGraphModel>
  </diagram>
</mxfile>
